<?xml version="1.0" standalone="no"?>
<!DOCTYPE svg PUBLIC "-//W3C//DTD SVG 20010904//EN"
 "http://www.w3.org/TR/2001/REC-SVG-20010904/DTD/svg10.dtd">
<svg version="1.0" xmlns="http://www.w3.org/2000/svg"
 width="599.000000pt" height="597.000000pt" viewBox="0 0 599.000000 597.000000"
 preserveAspectRatio="xMidYMid meet">

<g transform="translate(0.000000,597.000000) scale(0.100000,-0.100000)"
fill="#000000" stroke="none">
<path d="M2731 5118 c59 -48 118 -143 101 -160 -7 -7 -18 -3 -35 16 -32 34
-103 66 -149 66 -51 0 -48 -11 10 -34 26 -11 60 -28 76 -37 l29 -18 -29 -6
c-151 -35 -300 -130 -456 -293 -37 -38 -69 -68 -71 -66 -1 2 -36 8 -76 15
-171 26 -295 -39 -374 -196 -65 -130 -86 -276 -96 -680 -10 -353 -16 -390 -85
-541 -37 -80 -108 -188 -132 -202 -8 -5 -58 -51 -111 -103 -259 -256 -362
-500 -293 -696 70 -200 385 -389 614 -369 138 13 284 83 409 196 l67 62 183
-11 c100 -6 192 -11 205 -11 20 0 17 -7 -33 -66 -31 -36 -68 -89 -82 -118
l-26 -53 -61 19 c-193 61 -352 15 -420 -121 -53 -105 -56 -198 -11 -287 13
-27 22 -50 20 -53 -10 -9 -83 -1 -116 13 -19 8 -54 33 -78 55 -87 79 -150 89
-180 27 -11 -23 -11 -36 -1 -70 16 -54 169 -206 264 -260 l68 -40 -51 -45
c-69 -62 -96 -125 -80 -183 43 -165 227 -196 519 -88 45 16 93 36 108 44 26
13 29 12 69 -24 23 -22 60 -44 84 -50 83 -23 227 11 371 85 l68 36 84 -30
c167 -59 327 -75 441 -46 64 17 89 34 111 77 l14 27 82 -39 c119 -55 222 -74
377 -67 189 8 271 42 271 113 0 68 -150 169 -412 279 -62 25 -86 45 -57 45 6
0 39 14 73 31 78 39 149 109 184 179 23 47 27 67 27 145 0 118 -22 182 -84
245 -49 51 -118 80 -192 80 -30 0 -147 -26 -246 -56 -19 -5 -23 -3 -23 18 0
66 -73 159 -159 203 l-35 17 105 43 c57 23 151 65 208 94 57 28 105 50 106 49
1 -2 10 -18 19 -36 43 -84 140 -161 256 -203 56 -20 84 -23 200 -23 112 0 148
4 215 23 141 41 259 113 344 208 115 129 117 288 6 490 -58 106 -112 168 -256
299 -76 68 -157 150 -182 181 -143 189 -239 427 -308 766 -68 335 -154 544
-265 649 -40 37 -120 75 -175 83 -26 4 -72 2 -104 -5 l-57 -12 -42 40 c-52 50
-134 102 -214 136 -74 31 -252 76 -303 76 -20 0 -38 3 -42 6 -9 9 29 79 55
104 l22 20 -23 0 c-34 0 -59 -17 -77 -52 l-16 -31 -26 46 c-31 53 -73 89 -121
105 -55 19 -55 14 0 -30z m385 -242 c99 -28 184 -62 184 -74 0 -5 -4 -12 -10
-18 -9 -9 -50 -119 -50 -136 0 -4 15 -8 34 -8 77 0 151 -98 161 -215 6 -67 8
-69 -48 58 -17 38 -45 81 -64 97 -36 32 -80 48 -93 34 -14 -15 -28 -105 -36
-221 l-7 -113 -26 0 c-46 0 -125 -45 -173 -99 -47 -52 -87 -138 -89 -189 l-1
-27 -8 25 c-5 14 -16 52 -26 84 -22 72 -81 164 -131 202 -20 15 -60 36 -88 45
l-50 16 -8 63 c-14 115 -69 242 -134 311 l-25 27 54 40 c64 49 159 97 230 117
83 23 288 14 404 -19z m-658 -330 c22 -12 21 -13 -20 -13 -80 0 -124 -41 -177
-167 -35 -83 -44 -92 -36 -36 11 72 35 138 63 172 45 53 120 73 170 44z m207
-270 c155 -72 233 -319 170 -534 -55 -185 -206 -284 -340 -223 -47 21 -115 92
-144 150 -91 178 -53 445 80 565 77 69 149 82 234 42z m641 -45 c64 -29 118
-84 150 -153 25 -54 29 -74 28 -143 -5 -351 -443 -424 -539 -91 -45 154 24
318 160 382 62 30 143 31 201 5z m-368 -467 c19 -37 69 -91 121 -132 l25 -19
-73 -7 c-41 -4 -107 -16 -149 -27 -41 -10 -77 -19 -78 -19 -2 0 10 21 26 47
41 65 69 144 77 217 l7 61 12 -41 c6 -22 21 -58 32 -80z m430 -152 c2 -7 -7
-12 -22 -12 -27 0 -35 15 -13 23 17 7 30 3 35 -11z m-945 -88 c23 -19 61 -40
85 -47 23 -6 42 -14 42 -17 0 -3 -12 -13 -27 -22 -50 -30 -116 -102 -139 -153
-61 -130 0 -263 213 -465 101 -95 226 -170 284 -170 40 0 38 -15 -18 -122 -36
-70 -57 -98 -90 -121 -49 -35 -50 -47 -2 -23 18 9 33 15 34 14 1 -2 13 -28 27
-58 62 -138 144 -166 220 -76 10 12 32 49 49 84 27 54 35 63 53 58 12 -3 39
-8 61 -11 l40 -6 -47 20 c-88 35 -165 106 -207 188 -11 23 -21 46 -21 50 0 5
16 17 36 28 37 20 219 208 320 330 71 86 138 189 168 257 l22 50 76 -113 c113
-169 261 -356 422 -533 l79 -87 -69 -70 c-95 -97 -208 -177 -350 -246 -111
-56 -370 -163 -391 -163 -5 0 -29 -18 -54 -40 -160 -146 -364 -142 -585 11
-42 28 -46 29 -169 29 -171 0 -354 17 -446 41 -92 25 -203 80 -268 134 -51 42
-105 110 -99 124 2 5 39 36 83 69 111 83 278 258 353 372 125 187 217 414 250
617 9 57 19 103 20 103 2 0 23 -16 45 -36z m812 -29 c52 -14 139 -54 132 -61
-2 -2 -23 3 -47 10 -147 44 -361 19 -594 -70 -49 -19 -90 -33 -92 -31 -7 7 58
49 134 87 69 34 148 60 222 73 59 10 190 6 245 -8z m176 -1455 c61 -32 116
-87 135 -136 23 -60 14 -148 -21 -220 -39 -79 -198 -276 -348 -432 -44 -45
-78 -84 -76 -87 2 -2 33 3 69 10 143 31 275 7 342 -62 33 -34 58 -79 58 -104
0 -5 -14 6 -30 25 -52 59 -150 90 -150 47 0 -13 9 -20 30 -24 34 -7 105 -68
126 -109 14 -27 13 -32 -3 -61 -27 -45 -45 -44 -67 4 -18 40 -90 103 -110 96
-24 -8 -15 -35 18 -58 38 -26 75 -83 62 -96 -4 -4 -51 -7 -104 -7 -102 2 -248
33 -327 70 l-40 19 -3 273 c-2 253 -1 273 15 278 10 3 42 17 72 32 60 30 82
55 65 72 -8 8 -26 2 -64 -22 -74 -46 -136 -46 -209 0 -52 32 -71 34 -71 7 0
-17 60 -58 113 -76 l37 -13 0 -278 0 -279 -92 -44 c-51 -25 -120 -51 -153 -60
-58 -15 -145 -20 -145 -10 0 29 85 125 110 125 6 0 10 7 10 15 0 58 -117 -18
-151 -97 -14 -33 -29 -35 -54 -8 -17 19 -17 22 5 75 12 31 38 68 57 85 21 19
33 37 29 45 -9 26 -32 16 -76 -31 -23 -25 -43 -44 -45 -42 -2 2 1 25 7 51 7
35 22 61 51 92 56 57 127 79 242 73 l82 -4 -106 119 c-116 130 -241 292 -268
347 -25 51 -23 144 4 200 24 47 95 139 119 153 10 6 27 -2 52 -21 59 -47 162
-99 229 -117 58 -14 66 -14 94 1 23 11 45 14 78 10 81 -11 95 -10 156 20 37
18 85 55 130 100 38 39 71 71 73 72 1 1 21 -7 43 -18z m-1108 -250 l65 -20 4
-58 c2 -33 14 -76 26 -101 28 -53 140 -202 225 -301 62 -71 65 -75 44 -83 -47
-18 -230 -19 -329 -3 -211 35 -362 117 -419 228 -37 73 -14 215 47 287 60 72
200 93 337 51z m1320 -22 c-4 -18 -8 -65 -8 -104 0 -118 35 -138 226 -127 107
5 120 4 162 -16 29 -14 49 -32 57 -51 11 -27 9 -33 -21 -71 -18 -23 -57 -57
-86 -76 -113 -72 -347 -123 -496 -108 -40 4 -107 10 -150 13 l-78 7 86 100
c192 221 260 322 280 415 9 42 13 50 26 50 7 0 8 -12 2 -32z m-1640 -458 c13
-11 58 -35 98 -55 57 -27 68 -36 53 -41 -57 -21 -170 -67 -193 -79 -25 -13
-32 -11 -94 23 -66 36 -170 113 -163 120 2 2 28 -4 57 -12 29 -9 61 -16 72
-16 32 0 84 30 95 55 14 30 41 32 75 5z m322 -125 c39 -8 88 -15 111 -15 52 0
57 -6 29 -36 -39 -42 -58 -95 -63 -176 l-5 -77 -86 -36 c-112 -48 -258 -85
-332 -85 l-59 0 15 38 c19 45 68 96 106 113 31 12 38 36 14 45 -33 13 -133
-74 -160 -138 -8 -21 -19 -38 -24 -38 -5 0 -23 14 -40 30 -27 27 -29 34 -20
58 20 53 58 91 109 109 34 12 50 23 50 35 0 36 -83 15 -139 -36 l-24 -21 17
27 c36 55 184 136 346 189 47 15 85 28 85 28 0 1 32 -6 70 -14z m1561 -29
c275 -110 446 -219 417 -265 -19 -30 -38 -21 -68 30 -16 28 -47 64 -67 80 -44
35 -124 72 -138 64 -21 -13 -9 -35 27 -50 20 -9 52 -27 71 -41 32 -25 92 -99
92 -115 0 -4 -13 -10 -30 -13 -92 -18 -84 -21 -102 31 -9 27 -31 67 -48 90
-32 44 -110 89 -135 79 -26 -10 -16 -34 18 -45 53 -18 127 -108 127 -156 0
-42 -213 -1 -360 69 -54 25 -55 27 -55 68 -1 61 -10 89 -45 133 -16 20 -27 41
-24 46 3 5 22 9 42 9 29 1 165 24 168 29 0 0 50 -19 110 -43z"/>
<path d="M2521 4134 c-68 -29 -112 -107 -119 -210 -6 -97 16 -169 67 -222 117
-120 276 -24 289 174 5 87 -16 159 -61 211 -53 60 -111 76 -176 47z m158 -110
c27 -34 26 -57 -1 -88 -35 -38 -61 -41 -97 -10 -37 31 -41 68 -9 101 30 33 80
31 107 -3z"/>
<path d="M3175 4079 c-69 -20 -125 -107 -125 -194 0 -106 67 -185 164 -193
177 -14 264 211 133 346 -45 46 -105 61 -172 41z m135 -59 c13 -13 20 -33 20
-60 0 -49 -27 -80 -70 -80 -43 0 -70 31 -70 80 0 49 27 80 70 80 17 0 39 -9
50 -20z"/>
<path d="M3467 2904 c-13 -13 -7 -55 9 -61 24 -9 51 23 38 45 -12 19 -36 27
-47 16z"/>
<path d="M3664 2866 c-10 -26 4 -48 28 -44 17 2 23 10 23 28 0 18 -6 26 -23
28 -13 2 -25 -3 -28 -12z"/>
<path d="M2307 2733 c-4 -3 -7 -17 -7 -30 0 -18 6 -23 24 -23 30 0 40 13 31
40 -6 19 -35 27 -48 13z"/>
<path d="M3574 2696 c-10 -26 4 -48 28 -44 17 2 23 10 23 28 0 18 -6 26 -23
28 -13 2 -25 -3 -28 -12z"/>
<path d="M2064 2686 c-10 -26 4 -48 28 -44 17 2 23 10 23 28 0 18 -6 26 -23
28 -13 2 -25 -3 -28 -12z"/>
<path d="M3806 2684 c-7 -19 10 -44 29 -44 19 0 36 25 29 44 -3 9 -16 16 -29
16 -13 0 -26 -7 -29 -16z"/>
<path d="M3416 2644 c-8 -20 11 -44 34 -44 20 0 32 23 24 45 -8 20 -50 19 -58
-1z"/>
<path d="M3684 2556 c-10 -26 4 -48 28 -44 17 2 23 10 23 28 0 18 -6 26 -23
28 -13 2 -25 -3 -28 -12z"/>
<path d="M2141 2542 c-11 -21 3 -52 24 -52 22 0 39 38 24 56 -16 19 -36 18
-48 -4z"/>
<path d="M1953 2483 c-17 -6 -16 -38 1 -52 20 -16 46 -3 46 24 0 18 -22 40
-33 34 -1 0 -8 -3 -14 -6z"/>
<path d="M2333 2483 c-19 -7 -16 -50 4 -57 24 -10 51 20 37 41 -12 19 -23 24
-41 16z"/>
<path d="M2064 2366 c-10 -26 4 -48 28 -44 17 2 23 10 23 28 0 18 -6 26 -23
28 -13 2 -25 -3 -28 -12z"/>
<path d="M1588 1695 c-14 -15 4 -25 43 -25 22 0 53 -7 69 -15 35 -18 70 -61
70 -86 0 -11 5 -19 10 -19 17 0 11 43 -10 78 -11 18 -36 40 -55 48 -43 18
-117 29 -127 19z"/>
<path d="M1585 1600 c3 -5 18 -10 33 -10 35 0 70 -25 83 -57 5 -13 13 -22 18
-18 15 9 -8 62 -34 79 -27 18 -110 22 -100 6z"/>
<path d="M1375 1373 c11 -45 39 -86 75 -110 18 -13 37 -23 41 -23 20 0 7 19
-29 43 -35 23 -47 41 -66 100 -9 29 -29 20 -21 -10z"/>
</g>
</svg>
